<svg xmlns="http://www.w3.org/2000/svg" viewBox="0 0 200 200" role="img" aria-label="Ludimente">
  <!-- Fondo redondeado de marca -->
  <rect width="200" height="200" rx="44" fill="#EDE0F8"/>

  <!-- Brazos del pulpito -->
  <g stroke-linecap="round" fill="none" stroke-width="11">
    <path d="M70 120 C50 140 40 160 52 178" stroke="#C9A8E0"/>
    <path d="M85 128 C72 152 66 170 78 186" stroke="#F2B5C8"/>
    <path d="M100 130 C100 158 100 172 100 190" stroke="#A8C8E8"/>
    <path d="M115 128 C128 152 134 170 122 186" stroke="#F7D98B"/>
    <path d="M130 120 C150 140 160 160 148 178" stroke="#A8E0C4"/>
    <path d="M58 108 C36 120 28 140 40 158" stroke="#F7C9A8"/>
  </g>

  <!-- Cabeza -->
  <ellipse cx="100" cy="85" rx="55" ry="52" fill="#C9A8E0"/>
  <ellipse cx="100" cy="80" rx="46" ry="42" fill="#FDFAF6"/>

  <!-- Mejillas -->
  <circle cx="74" cy="92" r="9" fill="#F2B5C8" opacity="0.7"/>
  <circle cx="126" cy="92" r="9" fill="#F2B5C8" opacity="0.7"/>

  <!-- Ojos -->
  <circle cx="84" cy="74" r="9" fill="#4A4A5A"/>
  <circle cx="116" cy="74" r="9" fill="#4A4A5A"/>
  <circle cx="87" cy="71" r="3" fill="#FDFAF6"/>
  <circle cx="119" cy="71" r="3" fill="#FDFAF6"/>

  <!-- Sonrisa -->
  <path d="M86 96 Q100 108 114 96" fill="none" stroke="#9B70C4" stroke-width="4" stroke-linecap="round"/>

  <!-- Estrellita -->
  <path d="M100 40 l3 7 8 1 -6 6 2 8 -7 -4 -7 4 2 -8 -6 -6 8 -1z" fill="#F7D98B"/>
</svg>
